# Blender 4.3.2
# www.blender.org
o M_Grass_Blade
v -0.000000 1.000000 0.000000
v -0.057922 0.000000 0.000000
v 0.057922 0.000000 -0.000000
v -0.033334 0.765024 0.000000
v -0.060001 0.235600 0.000000
v 0.060001 0.235600 -0.000000
v 0.033334 0.765024 -0.000000
v -0.050260 0.501106 0.000000
v 0.050260 0.501106 -0.000000
vn -0.2902 -0.0000 0.9570
vn 0.2902 -0.0000 0.9570
vn 0.0980 -0.0000 0.9952
vn -0.0980 -0.0000 0.9952
vt 0.000035 0.235619
vt 0.002114 0.000035
vt 0.117950 0.000035
vt 0.120029 0.235619
vt 0.060032 0.999965
vt 0.026700 0.765006
vt 0.093363 0.765006
vt 0.009776 0.501105
vt 0.110288 0.501106
s 0
f 5/1/1 2/2/1 3/3/2 6/4/2
f 1/5/3 4/6/4 7/7/3
f 8/8/1 5/1/1 6/4/2 9/9/2
f 4/6/4 8/8/1 9/9/2 7/7/3
