{
	"asset":{
		"generator":"Khronos glTF Blender I/O v4.3.47",
		"version":"2.0"
	},
	"scene":0,
	"scenes":[
		{
			"name":"Scene",
			"nodes":[
				15
			]
		}
	],
	"nodes":[
		{
			"name":"CYlinder",
			"rotation":[
				-0.0020106022711843252,
				3.391464886703943e-08,
				3.391465241975311e-08,
				0.9999979734420776
			],
			"scale":[
				1,
				0.9999998807907104,
				0.9999999403953552
			],
			"translation":[
				-2.972398860379144e-08,
				0.3400028944015503,
				-0.6942711472511292
			]
		},
		{
			"name":"Trigger",
			"rotation":[
				0.5731949806213379,
				0.0038815615698695183,
				0.0034959292970597744,
				0.8194023370742798
			],
			"scale":[
				1,
				0.9999999403953552,
				1
			],
			"translation":[
				0.00043948087841272354,
				-0.010810494422912598,
				-0.18459737300872803
			]
		},
		{
			"name":"Hammer",
			"rotation":[
				-0.6991754174232483,
				1.2376254687751498e-07,
				-4.4814328248321544e-08,
				0.7149502038955688
			],
			"scale":[
				1,
				0.9999999403953552,
				0.9999999403953552
			],
			"translation":[
				1.6852146700330195e-07,
				-0.2657790184020996,
				-0.43249067664146423
			]
		},
		{
			"name":"Hatch",
			"rotation":[
				-0.7071051597595215,
				0.0015134080313146114,
				-0.0015134080313146114,
				0.7071051597595215
			],
			"scale":[
				0.9999999403953552,
				1,
				0.9999999403953552
			],
			"translation":[
				-0.2712720036506653,
				0.007532000541687012,
				-0.5363789796829224
			]
		},
		{
			"name":"Spring_Start",
			"rotation":[
				0.2668929100036621,
				-0.2669886350631714,
				0.6546668410301208,
				0.654901921749115
			],
			"scale":[
				1,
				0.9999999403953552,
				1
			],
			"translation":[
				2.332269559701672e-06,
				-4.359982028745435e-07,
				4.5523947278525156e-08
			]
		},
		{
			"children":[
				4
			],
			"name":"Ejector Rod",
			"rotation":[
				4.862055220655748e-07,
				6.23884261585772e-07,
				0.7071067690849304,
				0.7071067690849304
			],
			"translation":[
				-0.141107439994812,
				2.0912675857543945,
				-0.7358790040016174
			]
		},
		{
			"name":"Spring End",
			"rotation":[
				-6.883939107638071e-08,
				6.883939107638071e-08,
				0.7071067690849304,
				0.7071067690849304
			],
			"scale":[
				0.9999999403953552,
				0.9999999403953552,
				1
			],
			"translation":[
				-0.1416207104921341,
				0.6598414778709412,
				-0.7358785271644592
			]
		},
		{
			"children":[
				0,
				1,
				2,
				3,
				5,
				6
			],
			"name":"Root"
		},
		{
			"mesh":0,
			"name":"Cylinder",
			"skin":0
		},
		{
			"mesh":1,
			"name":"Frame",
			"skin":0
		},
		{
			"mesh":2,
			"name":"Hammer",
			"skin":0
		},
		{
			"mesh":3,
			"name":"Hatch",
			"skin":0
		},
		{
			"mesh":4,
			"name":"Rod",
			"skin":0
		},
		{
			"mesh":5,
			"name":"spring",
			"skin":0
		},
		{
			"mesh":6,
			"name":"Trigger",
			"skin":0
		},
		{
			"children":[
				8,
				9,
				10,
				11,
				12,
				13,
				14,
				7
			],
			"name":"Colt_Saa",
			"rotation":[
				0,
				-0.7071068286895752,
				0.7071068286895752,
				3.090862321641907e-08
			]
		}
	],
	"meshes":[
		{
			"name":"Cylinder.030",
			"primitives":[
				{
					"attributes":{
						"POSITION":0,
						"NORMAL":1,
						"TEXCOORD_0":2,
						"JOINTS_0":3,
						"WEIGHTS_0":4
					},
					"indices":5
				}
			]
		},
		{
			"name":"Cylinder.026",
			"primitives":[
				{
					"attributes":{
						"POSITION":7,
						"NORMAL":8,
						"TEXCOORD_0":9,
						"JOINTS_0":10,
						"WEIGHTS_0":11
					},
					"indices":12
				}
			]
		},
		{
			"name":"Cylinder.025",
			"primitives":[
				{
					"attributes":{
						"POSITION":13,
						"NORMAL":14,
						"TEXCOORD_0":15,
						"JOINTS_0":16,
						"WEIGHTS_0":17
					},
					"indices":18
				}
			]
		},
		{
			"name":"Cylinder.023",
			"primitives":[
				{
					"attributes":{
						"POSITION":19,
						"NORMAL":20,
						"TEXCOORD_0":21,
						"JOINTS_0":22,
						"WEIGHTS_0":23
					},
					"indices":24
				}
			]
		},
		{
			"name":"Cylinder.020",
			"primitives":[
				{
					"attributes":{
						"POSITION":25,
						"NORMAL":26,
						"TEXCOORD_0":27,
						"JOINTS_0":28,
						"WEIGHTS_0":29
					},
					"indices":30
				}
			]
		},
		{
			"name":"Circle.003",
			"primitives":[
				{
					"attributes":{
						"POSITION":31,
						"NORMAL":32,
						"TEXCOORD_0":33,
						"TANGENT":34,
						"JOINTS_0":35,
						"WEIGHTS_0":36
					},
					"indices":37
				}
			]
		},
		{
			"name":"Cube.004",
			"primitives":[
				{
					"attributes":{
						"POSITION":38,
						"NORMAL":39,
						"TEXCOORD_0":40,
						"JOINTS_0":41,
						"WEIGHTS_0":42
					},
					"indices":43
				}
			]
		}
	],
	"skins":[
		{
			"inverseBindMatrices":6,
			"joints":[
				7,
				0,
				1,
				2,
				3,
				5,
				4,
				6
			],
			"name":"Colt_Saa"
		}
	],
	"accessors":[
		{
			"bufferView":0,
			"componentType":5126,
			"count":1484,
			"max":[
				0.2943118214607239,
				1.031747817993164,
				-0.03208506852388382
			],
			"min":[
				-0.2943118214607239,
				0.3567945063114166,
				-0.647920548915863
			],
			"type":"VEC3"
		},
		{
			"bufferView":1,
			"componentType":5126,
			"count":1484,
			"type":"VEC3"
		},
		{
			"bufferView":2,
			"componentType":5126,
			"count":1484,
			"type":"VEC2"
		},
		{
			"bufferView":3,
			"componentType":5121,
			"count":1484,
			"type":"VEC4"
		},
		{
			"bufferView":4,
			"componentType":5126,
			"count":1484,
			"type":"VEC4"
		},
		{
			"bufferView":5,
			"componentType":5123,
			"count":2724,
			"type":"SCALAR"
		},
		{
			"bufferView":6,
			"componentType":5126,
			"count":8,
			"type":"MAT4"
		},
		{
			"bufferView":7,
			"componentType":5126,
			"count":6286,
			"max":[
				0.2726828157901764,
				1.1364550590515137,
				1.4437708854675293
			],
			"min":[
				-0.2855074405670166,
				-0.7530385255813599,
				-3.7855212688446045
			],
			"type":"VEC3"
		},
		{
			"bufferView":8,
			"componentType":5126,
			"count":6286,
			"type":"VEC3"
		},
		{
			"bufferView":9,
			"componentType":5126,
			"count":6286,
			"type":"VEC2"
		},
		{
			"bufferView":10,
			"componentType":5121,
			"count":6286,
			"type":"VEC4"
		},
		{
			"bufferView":11,
			"componentType":5126,
			"count":6286,
			"type":"VEC4"
		},
		{
			"bufferView":12,
			"componentType":5123,
			"count":10497,
			"type":"SCALAR"
		},
		{
			"bufferView":13,
			"componentType":5126,
			"count":528,
			"max":[
				0.0562107153236866,
				1.097834825515747,
				0.5813543796539307
			],
			"min":[
				-0.05621083080768585,
				0.27662426233291626,
				-0.04884074628353119
			],
			"type":"VEC3"
		},
		{
			"bufferView":14,
			"componentType":5126,
			"count":528,
			"type":"VEC3"
		},
		{
			"bufferView":15,
			"componentType":5126,
			"count":528,
			"type":"VEC2"
		},
		{
			"bufferView":16,
			"componentType":5121,
			"count":528,
			"type":"VEC4"
		},
		{
			"bufferView":17,
			"componentType":5126,
			"count":528,
			"type":"VEC4"
		},
		{
			"bufferView":18,
			"componentType":5123,
			"count":852,
			"type":"SCALAR"
		},
		{
			"bufferView":19,
			"componentType":5126,
			"count":293,
			"max":[
				0.28311753273010254,
				0.9177395701408386,
				0.2063397914171219
			],
			"min":[
				0.048667099326848984,
				0.4035465121269226,
				-0.040920063853263855
			],
			"type":"VEC3"
		},
		{
			"bufferView":20,
			"componentType":5126,
			"count":293,
			"type":"VEC3"
		},
		{
			"bufferView":21,
			"componentType":5126,
			"count":293,
			"type":"VEC2"
		},
		{
			"bufferView":22,
			"componentType":5121,
			"count":293,
			"type":"VEC4"
		},
		{
			"bufferView":23,
			"componentType":5126,
			"count":293,
			"type":"VEC4"
		},
		{
			"bufferView":24,
			"componentType":5123,
			"count":438,
			"type":"SCALAR"
		},
		{
			"bufferView":25,
			"componentType":5126,
			"count":304,
			"max":[
				0.18396317958831787,
				0.7953921556472778,
				-0.6597638130187988
			],
			"min":[
				-0.07339081168174744,
				0.6763652563095093,
				-2.2021262645721436
			],
			"type":"VEC3"
		},
		{
			"bufferView":26,
			"componentType":5126,
			"count":304,
			"type":"VEC3"
		},
		{
			"bufferView":27,
			"componentType":5126,
			"count":304,
			"type":"VEC2"
		},
		{
			"bufferView":28,
			"componentType":5121,
			"count":304,
			"type":"VEC4"
		},
		{
			"bufferView":29,
			"componentType":5126,
			"count":304,
			"type":"VEC4"
		},
		{
			"bufferView":30,
			"componentType":5123,
			"count":762,
			"type":"SCALAR"
		},
		{
			"bufferView":31,
			"componentType":5126,
			"count":37152,
			"max":[
				0.18815255165100098,
				0.7980996370315552,
				-0.6591740846633911
			],
			"min":[
				0.095090351998806,
				0.7050372958183289,
				-2.118439197540283
			],
			"type":"VEC3"
		},
		{
			"bufferView":32,
			"componentType":5126,
			"count":37152,
			"type":"VEC3"
		},
		{
			"bufferView":33,
			"componentType":5126,
			"count":37152,
			"type":"VEC2"
		},
		{
			"bufferView":34,
			"componentType":5126,
			"count":37152,
			"type":"VEC4"
		},
		{
			"bufferView":35,
			"componentType":5121,
			"count":37152,
			"type":"VEC4"
		},
		{
			"bufferView":36,
			"componentType":5126,
			"count":37152,
			"type":"VEC4"
		},
		{
			"bufferView":37,
			"componentType":5123,
			"count":89088,
			"type":"SCALAR"
		},
		{
			"bufferView":38,
			"componentType":5126,
			"count":148,
			"max":[
				0.054291438311338425,
				0.21037018299102783,
				0.06706802546977997
			],
			"min":[
				-0.05517039820551872,
				-0.1559794545173645,
				-0.12187208235263824
			],
			"type":"VEC3"
		},
		{
			"bufferView":39,
			"componentType":5126,
			"count":148,
			"type":"VEC3"
		},
		{
			"bufferView":40,
			"componentType":5126,
			"count":148,
			"type":"VEC2"
		},
		{
			"bufferView":41,
			"componentType":5121,
			"count":148,
			"type":"VEC4"
		},
		{
			"bufferView":42,
			"componentType":5126,
			"count":148,
			"type":"VEC4"
		},
		{
			"bufferView":43,
			"componentType":5123,
			"count":228,
			"type":"SCALAR"
		}
	],
	"bufferViews":[
		{
			"buffer":0,
			"byteLength":17808,
			"byteOffset":0,
			"target":34962
		},
		{
			"buffer":0,
			"byteLength":17808,
			"byteOffset":17808,
			"target":34962
		},
		{
			"buffer":0,
			"byteLength":11872,
			"byteOffset":35616,
			"target":34962
		},
		{
			"buffer":0,
			"byteLength":5936,
			"byteOffset":47488,
			"target":34962
		},
		{
			"buffer":0,
			"byteLength":23744,
			"byteOffset":53424,
			"target":34962
		},
		{
			"buffer":0,
			"byteLength":5448,
			"byteOffset":77168,
			"target":34963
		},
		{
			"buffer":0,
			"byteLength":512,
			"byteOffset":82616
		},
		{
			"buffer":0,
			"byteLength":75432,
			"byteOffset":83128,
			"target":34962
		},
		{
			"buffer":0,
			"byteLength":75432,
			"byteOffset":158560,
			"target":34962
		},
		{
			"buffer":0,
			"byteLength":50288,
			"byteOffset":233992,
			"target":34962
		},
		{
			"buffer":0,
			"byteLength":25144,
			"byteOffset":284280,
			"target":34962
		},
		{
			"buffer":0,
			"byteLength":100576,
			"byteOffset":309424,
			"target":34962
		},
		{
			"buffer":0,
			"byteLength":20994,
			"byteOffset":410000,
			"target":34963
		},
		{
			"buffer":0,
			"byteLength":6336,
			"byteOffset":430996,
			"target":34962
		},
		{
			"buffer":0,
			"byteLength":6336,
			"byteOffset":437332,
			"target":34962
		},
		{
			"buffer":0,
			"byteLength":4224,
			"byteOffset":443668,
			"target":34962
		},
		{
			"buffer":0,
			"byteLength":2112,
			"byteOffset":447892,
			"target":34962
		},
		{
			"buffer":0,
			"byteLength":8448,
			"byteOffset":450004,
			"target":34962
		},
		{
			"buffer":0,
			"byteLength":1704,
			"byteOffset":458452,
			"target":34963
		},
		{
			"buffer":0,
			"byteLength":3516,
			"byteOffset":460156,
			"target":34962
		},
		{
			"buffer":0,
			"byteLength":3516,
			"byteOffset":463672,
			"target":34962
		},
		{
			"buffer":0,
			"byteLength":2344,
			"byteOffset":467188,
			"target":34962
		},
		{
			"buffer":0,
			"byteLength":1172,
			"byteOffset":469532,
			"target":34962
		},
		{
			"buffer":0,
			"byteLength":4688,
			"byteOffset":470704,
			"target":34962
		},
		{
			"buffer":0,
			"byteLength":876,
			"byteOffset":475392,
			"target":34963
		},
		{
			"buffer":0,
			"byteLength":3648,
			"byteOffset":476268,
			"target":34962
		},
		{
			"buffer":0,
			"byteLength":3648,
			"byteOffset":479916,
			"target":34962
		},
		{
			"buffer":0,
			"byteLength":2432,
			"byteOffset":483564,
			"target":34962
		},
		{
			"buffer":0,
			"byteLength":1216,
			"byteOffset":485996,
			"target":34962
		},
		{
			"buffer":0,
			"byteLength":4864,
			"byteOffset":487212,
			"target":34962
		},
		{
			"buffer":0,
			"byteLength":1524,
			"byteOffset":492076,
			"target":34963
		},
		{
			"buffer":0,
			"byteLength":445824,
			"byteOffset":493600,
			"target":34962
		},
		{
			"buffer":0,
			"byteLength":445824,
			"byteOffset":939424,
			"target":34962
		},
		{
			"buffer":0,
			"byteLength":297216,
			"byteOffset":1385248,
			"target":34962
		},
		{
			"buffer":0,
			"byteLength":594432,
			"byteOffset":1682464,
			"target":34962
		},
		{
			"buffer":0,
			"byteLength":148608,
			"byteOffset":2276896,
			"target":34962
		},
		{
			"buffer":0,
			"byteLength":594432,
			"byteOffset":2425504,
			"target":34962
		},
		{
			"buffer":0,
			"byteLength":178176,
			"byteOffset":3019936,
			"target":34963
		},
		{
			"buffer":0,
			"byteLength":1776,
			"byteOffset":3198112,
			"target":34962
		},
		{
			"buffer":0,
			"byteLength":1776,
			"byteOffset":3199888,
			"target":34962
		},
		{
			"buffer":0,
			"byteLength":1184,
			"byteOffset":3201664,
			"target":34962
		},
		{
			"buffer":0,
			"byteLength":592,
			"byteOffset":3202848,
			"target":34962
		},
		{
			"buffer":0,
			"byteLength":2368,
			"byteOffset":3203440,
			"target":34962
		},
		{
			"buffer":0,
			"byteLength":456,
			"byteOffset":3205808,
			"target":34963
		}
	],
	"buffers":[
		{
			"byteLength":3206264,
			"uri":"revolver-cd0995255b9bcd260ce3f7bb6ff855b9.bin"
		}
	]
}
